<?xml version="1.0" encoding="UTF-8" standalone="no"?>
<!DOCTYPE svg PUBLIC "-//W3C//DTD SVG 1.1//EN" "http://www.w3.org/Graphics/SVG/1.1/DTD/svg11.dtd">
<svg width="100%" height="100%" viewBox="0 0 50 50" version="1.1" xmlns="http://www.w3.org/2000/svg" xmlns:xlink="http://www.w3.org/1999/xlink" xml:space="preserve" xmlns:serif="http://www.serif.com/" style="fill-rule:evenodd;clip-rule:evenodd;stroke-linecap:round;stroke-linejoin:round;stroke-miterlimit:1.5;">
    <g transform="matrix(1,0,0,1,-563.85,-1209.68)">
        <g id="Projects-Icon" serif:id="Projects Icon" transform="matrix(0.299319,0,0,0.321088,491.253,820.544)">
            <rect x="242.538" y="1211.94" width="167.046" height="155.721" style="fill:none;"/>
            <g id="Projects" transform="matrix(4.33443,0,0,4.04057,131.584,190.028)">
                <g transform="matrix(0.805036,0,0,0.805036,9.37334,56.0784)">
                    <path d="M43.747,249.247L22.431,260.248L42.632,270.961L65.75,259.905L43.747,249.247" style="fill:none;stroke:white;stroke-width:1.91px;"/>
                </g>
                <g transform="matrix(0.805036,0,0,0.805036,9.37334,62.8983)">
                    <path d="M30.41,256.131L22.431,260.248L42.632,270.961L65.75,259.905L56.967,255.65" style="fill:none;stroke:white;stroke-width:1.91px;"/>
                </g>
                <g transform="matrix(0.805036,0,0,0.805036,9.37334,69.5006)">
                    <path d="M30.099,256.291L22.431,260.248L42.632,270.961L65.75,259.905L57.321,255.822" style="fill:none;stroke:white;stroke-width:1.91px;"/>
                </g>
            </g>
        </g>
    </g>
</svg>
